  <svg
        version="1.0"
        xmlns="http://www.w3.org/2000/svg"
        width="60.000000pt"
        height="60.000000pt"
        viewBox="0 0 1024.000000 1024.000000"
        preserveAspectRatio="xMidYMid meet"
      >
        <g
          transform="translate(0.000000,1024.000000) scale(0.100000,-0.100000)"
          fill="#d2dbdd"
          stroke="none"
        >
          <path
            d="M0 5120 l0 -5120 5120 0 5120 0 0 5120 0 5120 -5120 0 -5120 0 0
   -5120z m4958 2932 c61 -4 112 -4 112 1 0 9 444 10 453 1 3 -4 -24 -22 -61 -41
   -158 -81 -215 -112 -221 -120 -3 -4 -24 -21 -46 -37 -22 -16 -54 -42 -72 -59
   -17 -16 -36 -26 -42 -23 -7 5 -9 -26 -6 -96 3 -67 2 -94 -4 -78 -7 19 -10 8
   -12 -50 -2 -69 -3 -71 -9 -30 -4 25 -8 35 -8 23 -1 -15 -8 -23 -21 -23 -11 0
   -21 -5 -23 -12 -3 -8 -31 -11 -88 -9 -59 1 -86 -2 -92 -11 -6 -9 -10 -7 -14
   10 -4 12 -11 22 -16 22 -6 0 -5 7 2 15 7 8 10 15 7 15 -4 0 -18 -17 -32 -37
   -14 -21 -25 -31 -25 -23 0 9 -6 7 -16 -8 -8 -12 -20 -20 -25 -17 -12 8 -12 3
   7 -67 23 -90 17 -95 -49 -43 l-57 45 -55 -40 c-30 -22 -59 -40 -65 -40 -18 0
   -11 35 19 96 28 55 28 57 5 29 -13 -16 -24 -33 -24 -37 0 -5 -13 -8 -30 -8
   -28 0 -45 20 -17 20 6 0 4 5 -6 11 -10 6 -58 9 -112 7 -51 -2 -91 0 -89 4 3 5
   -2 8 -11 8 -14 0 -16 -9 -13 -47 2 -27 9 -47 14 -46 5 1 10 -6 11 -15 1 -9 7
   -39 14 -65 l13 -49 65 4 c41 2 66 -1 68 -8 2 -6 -19 -32 -46 -56 l-50 -45 20
   -64 c31 -100 24 -107 -44 -49 l-59 50 -64 -46 c-64 -45 -64 -46 -64 -20 0 14
   9 49 19 77 l20 51 -26 28 c-14 16 -41 36 -59 45 -45 21 -35 35 26 35 71 0 107
   19 101 53 -1 4 5 18 14 30 8 12 15 40 15 64 0 41 -1 42 -37 48 -21 3 -49 9
   -63 12 -14 3 -60 7 -104 8 -54 2 -81 7 -87 16 -6 9 -9 10 -9 2 0 -7 6 -16 13
   -20 6 -4 13 -17 13 -28 1 -11 5 -40 9 -64 8 -42 7 -43 -13 -32 -12 6 -39 28
   -61 49 l-38 37 -58 -42 c-68 -51 -85 -54 -85 -13 0 26 -4 30 -36 36 -19 4 -69
   4 -109 2 -90 -6 -112 -22 -96 -70 6 -17 11 -41 11 -52 0 -36 15 -43 83 -35 34
   4 66 4 71 -1 9 -9 -39 -63 -82 -90 l-23 -15 21 -60 c11 -33 19 -70 18 -83 -3
   -22 -6 -20 -64 26 l-60 49 -36 -31 c-20 -17 -50 -39 -68 -50 l-32 -18 7 33 c4
   19 15 56 25 82 l19 48 -60 47 c-66 51 -64 60 16 62 51 1 75 22 103 87 12 28
   22 54 22 56 0 7 -50 25 -116 42 -76 18 -84 19 -84 1 0 -7 -8 -16 -17 -20 -10
   -3 -24 -9 -30 -12 -8 -3 -13 1 -13 10 0 9 -4 16 -10 16 -12 0 -13 -27 -2 -34
   10 -6 3 -66 -8 -66 -4 0 -30 20 -58 45 -27 25 -53 45 -56 45 -4 0 -30 -18 -58
   -41 -32 -25 -58 -39 -70 -36 -11 3 -18 0 -18 -9 0 -8 -7 -14 -16 -14 -8 0 -12
   5 -9 10 4 6 -17 10 -54 10 -53 0 -61 -2 -61 -19 0 -14 -5 -18 -19 -14 -22 6
   -34 -9 -24 -32 5 -15 15 -17 65 -11 75 8 76 -6 3 -71 -30 -28 -55 -57 -55 -65
   0 -8 9 -41 20 -73 11 -32 20 -62 20 -68 0 -10 -4 -7 -95 62 -41 31 -60 40 -68
   32 -25 -25 -30 -8 -24 92 11 196 63 367 153 503 40 59 135 156 215 216 66 50
   213 122 294 144 85 23 375 34 858 32 224 -1 410 2 414 5 8 9 331 8 481 -1z
   m2067 -22 c6 -4 36 -12 67 -19 266 -57 558 -293 649 -522 21 -56 54 -208 45
   -216 -3 -3 -15 16 -27 41 -47 101 -168 176 -367 228 -105 28 -137 31 -307 35
   -281 8 -440 -15 -724 -103 -306 -94 -657 -259 -936 -440 -27 -17 -97 -62 -155
   -99 -58 -37 -121 -81 -141 -96 -20 -16 -40 -29 -43 -29 -3 0 -6 96 -7 213 0
   116 -4 233 -8 260 -4 26 -6 45 -3 42 3 -2 26 10 51 28 52 38 245 154 308 186
   23 11 59 33 80 47 109 74 380 192 678 294 218 74 312 99 510 135 124 23 305
   31 330 15z m-1948 -532 c-2 -13 -4 -3 -4 22 0 25 2 35 4 23 2 -13 2 -33 0 -45z
   m-277 -34 c0 -9 -7 -14 -17 -12 -25 5 -28 28 -4 28 12 0 21 -6 21 -16z m277
   -106 c-2 -13 -4 -3 -4 22 0 25 2 35 4 23 2 -13 2 -33 0 -45z m2058 -248 c247
   -17 458 -90 548 -190 81 -90 146 -197 153 -252 6 -44 9 -49 19 -34 12 15 14
   15 28 1 9 -8 27 -15 40 -15 22 0 28 -8 42 -53 9 -29 15 -71 13 -92 -2 -33 -7
   -41 -25 -43 -13 -2 -23 -10 -23 -18 0 -8 -7 -14 -15 -14 -8 0 -15 -4 -15 -10
   0 -5 -9 -10 -20 -10 -11 0 -20 5 -20 10 0 6 -6 10 -12 10 -7 0 -23 16 -35 34
   -12 19 -65 73 -117 119 -110 98 -179 131 -366 179 -287 72 -643 36 -960 -99
   -509 -216 -751 -381 -1320 -898 -221 -201 -253 -227 -405 -327 -71 -47 -184
   -123 -250 -169 -456 -316 -803 -491 -1115 -566 -141 -33 -364 -42 -463 -19
   -131 31 -276 116 -278 163 0 16 -1 16 -9 -2 -6 -14 -8 0 -8 45 1 60 1 62 9 25
   7 -39 5 299 -4 595 -3 95 -2 124 3 85 4 -33 8 -93 9 -133 1 -40 7 -88 15 -107
   34 -81 171 -175 306 -210 99 -26 280 -16 432 24 137 36 283 89 383 139 231
   115 668 404 950 629 286 227 476 370 653 490 42 29 107 74 144 100 37 27 103
   68 147 93 44 25 121 71 171 103 182 116 454 243 692 324 120 40 310 80 444 91
   54 5 104 10 109 10 6 1 73 -3 150 -8z m-4110 -137 c4 -21 13 -53 21 -72 14
   -33 16 -34 57 -28 24 3 56 3 72 -1 l27 -8 -56 -42 c-31 -24 -56 -47 -56 -52 0
   -5 9 -32 20 -60 20 -52 26 -90 13 -90 -5 1 -32 23 -62 49 l-54 49 -59 -46
   c-32 -25 -60 -43 -63 -40 -4 4 6 49 30 133 5 17 -5 29 -49 60 -30 22 -55 44
   -56 49 0 5 28 6 63 3 34 -3 68 -3 74 1 6 4 19 34 28 67 10 33 19 63 22 68 9
   14 21 -3 28 -40z m805 -18 c22 -83 21 -83 93 -78 37 3 67 1 71 -5 3 -5 -19
   -28 -49 -51 -30 -23 -55 -44 -55 -46 0 -2 9 -27 20 -55 22 -56 26 -90 10 -90
   -6 0 -33 20 -59 45 -46 43 -66 53 -73 37 -3 -7 -72 -62 -96 -76 -16 -10 -8 48
   16 108 l15 38 -34 27 c-18 14 -45 36 -59 49 l-25 23 72 -5 c81 -5 84 -3 98 64
   12 55 25 84 34 74 4 -5 14 -31 21 -59z m798 -10 l22 -75 70 6 c84 8 87 -4 12
   -56 -26 -19 -49 -35 -51 -36 -1 -2 4 -24 12 -51 21 -67 26 -93 18 -93 -3 0
   -30 20 -60 44 l-54 45 -54 -46 c-29 -25 -56 -43 -60 -40 -3 4 3 38 13 76 l18
   70 -29 23 c-16 13 -41 33 -55 46 l-25 23 74 -3 c83 -3 74 -13 101 95 7 26 16
   47 19 47 4 0 17 -34 29 -75z m-2013 -330 l27 -74 82 -3 81 -3 -62 -47 -61 -48
   12 -42 c34 -115 31 -119 -46 -58 -33 27 -57 39 -67 35 -9 -4 -20 -9 -26 -11
   -12 -5 -13 135 -1 221 9 59 21 105 30 105 2 0 16 -34 31 -75z m1614 -11 l17
   -59 78 -5 77 -5 -59 -43 -60 -43 19 -60 c33 -105 27 -109 -49 -43 l-52 46 -55
   -48 c-31 -26 -58 -44 -61 -41 -3 3 3 37 14 76 l21 71 -27 26 c-15 14 -39 33
   -54 42 -45 27 -33 35 40 28 81 -8 84 -6 103 76 7 32 17 54 22 49 4 -4 16 -35
   26 -67z m-809 24 c26 -100 18 -93 106 -90 l79 3 -35 -33 c-19 -19 -45 -41 -58
   -49 l-23 -16 20 -74 c12 -40 19 -75 16 -77 -6 -6 -55 31 -89 66 l-28 30 -59
   -45 c-33 -26 -61 -44 -64 -41 -3 3 4 36 16 74 l21 69 -32 25 c-18 14 -44 35
   -59 48 l-26 23 72 -5 c49 -3 75 -1 81 7 5 7 15 38 22 70 7 31 17 57 21 57 5 0
   13 -19 19 -42z m3939 -200 l40 -103 101 -3 c79 -2 102 -6 107 -18 3 -9 -3 -21
   -16 -30 -12 -9 -19 -20 -15 -25 3 -5 0 -8 -8 -7 -7 2 -13 -5 -12 -14 0 -10 1
   -47 2 -83 2 -58 4 -65 22 -65 19 0 20 -7 20 -100 l0 -100 100 0 c93 0 100 1
   100 20 0 18 7 20 80 20 73 0 80 -2 80 -20 0 -17 7 -20 40 -20 l40 0 0 -40 c0
   -33 3 -40 20 -40 13 0 20 -7 20 -20 0 -13 7 -20 20 -20 19 0 20 -7 20 -120 0
   -113 1 -120 20 -120 19 0 20 -7 20 -120 0 -113 1 -120 20 -120 17 0 20 -7 20
   -40 0 -33 3 -40 20 -40 19 0 20 -7 20 -220 0 -213 1 -220 20 -220 19 0 20 -7
   20 -100 0 -93 -1 -100 -20 -100 -17 0 -20 -7 -20 -40 0 -33 -3 -40 -20 -40
   -18 0 -20 -7 -20 -80 0 -47 -4 -80 -10 -80 -5 0 -10 -18 -10 -40 0 -22 -4 -40
   -10 -40 -5 0 -10 -18 -10 -40 0 -33 -3 -40 -20 -40 -17 0 -20 -7 -20 -40 0
   -33 -4 -40 -19 -40 -19 0 -33 -45 -31 -100 11 -245 10 -340 -3 -340 -15 0 -27
   -41 -27 -91 0 -19 -5 -29 -15 -29 -11 0 -15 -11 -15 -40 0 -29 4 -40 15 -40
   11 0 15 -11 15 -40 0 -29 -4 -40 -15 -40 -12 0 -15 -16 -15 -80 0 -79 0 -80
   -25 -80 -22 0 -25 -4 -25 -40 0 -33 -3 -40 -20 -40 -18 0 -20 -7 -20 -60 0
   -47 -3 -60 -15 -60 -11 0 -15 -11 -15 -40 0 -36 -2 -40 -25 -40 -22 0 -25 -4
   -25 -40 0 -22 -4 -40 -10 -40 -5 0 -10 -7 -10 -16 0 -9 -9 -18 -20 -21 -11 -3
   -20 -11 -20 -19 0 -7 -6 -17 -14 -21 -8 -4 -16 -17 -19 -28 -3 -12 -5 -7 -6
   15 -1 19 -5 30 -9 24 -4 -6 -15 -15 -25 -21 -17 -9 -17 -11 -3 -26 22 -22 20
   -47 -4 -47 -16 0 -20 -7 -20 -34 0 -28 -4 -35 -25 -40 -16 -4 -25 -13 -25 -26
   0 -11 -7 -20 -15 -20 -8 0 -15 -9 -15 -20 0 -16 -7 -20 -30 -20 -30 0 -40 -14
   -17 -24 10 -5 10 -7 0 -12 -7 -3 -13 -11 -13 -19 0 -7 -13 -18 -30 -25 -18 -8
   -30 -20 -30 -31 0 -15 -8 -19 -40 -19 -36 0 -40 -2 -40 -25 0 -24 -3 -25 -60
   -25 -59 0 -82 -14 -37 -23 12 -2 3 -5 -20 -6 -30 -1 -43 -5 -43 -15 0 -9 -15
   -17 -40 -21 -25 -4 -40 -12 -40 -21 0 -8 -9 -14 -20 -14 -11 0 -20 7 -20 15 0
   8 -9 15 -20 15 -13 0 -20 -7 -20 -20 0 -13 -7 -20 -20 -20 -13 0 -20 -7 -20
   -20 0 -18 -7 -20 -80 -20 -71 0 -80 -2 -80 -19 0 -16 -12 -19 -127 -24 -128
   -5 -233 -23 -233 -39 0 -4 -27 -8 -60 -8 -33 0 -60 -4 -60 -10 0 -6 -33 -10
   -80 -10 -73 0 -80 -2 -80 -20 0 -19 -7 -20 -140 -20 -118 0 -140 2 -140 15 0
   13 -10 14 -57 9 -32 -4 -59 -11 -61 -16 -2 -4 -30 -8 -63 -8 -46 0 -59 3 -59
   15 0 13 -40 15 -300 15 -260 0 -300 -2 -300 -15 0 -13 -38 -15 -280 -15 l-280
   0 0 25 c0 29 -22 33 -75 14 -39 -14 -125 -4 -125 15 0 19 -47 26 -180 26 -176
   0 -300 11 -300 26 0 7 -18 15 -40 19 -25 4 -40 12 -40 21 0 10 -12 14 -40 14
   -33 0 -40 3 -40 20 0 13 -7 20 -20 20 -11 0 -20 6 -20 14 0 9 -15 17 -40 21
   -30 5 -40 11 -40 26 0 17 -8 19 -78 19 -162 0 -322 13 -322 25 0 7 -13 18 -30
   25 -16 7 -30 16 -30 21 0 5 -6 9 -14 9 -8 0 -16 7 -20 15 -3 8 -15 15 -26 15
   -14 0 -20 7 -20 23 0 17 -13 28 -51 47 -60 29 -66 36 -38 43 12 3 18 3 15 0
   -8 -9 73 -54 104 -58 14 -2 52 -9 85 -15 58 -11 65 -9 195 33 196 65 285 99
   439 171 75 35 148 67 160 71 l24 7 -6 -153 c-3 -85 -8 -161 -11 -169 -6 -13
   164 -15 1496 -13 1661 3 1550 -1 1728 68 96 36 167 70 190 90 8 7 38 25 65 40
   61 33 145 113 138 131 -2 7 25 56 62 108 71 102 72 109 25 151 -24 21 -205
   241 -277 335 -49 65 -319 382 -481 565 -64 72 -310 326 -549 565 -238 240
   -433 438 -433 441 0 3 84 5 188 5 103 -1 535 0 960 2 l774 2 -7 43 c-4 23 -16
   70 -26 104 -16 50 -27 68 -62 94 -23 18 -46 37 -52 43 -5 6 -41 38 -80 70 -38
   33 -95 83 -125 110 -31 28 -69 62 -85 75 -17 14 -73 63 -125 110 -53 47 -123
   109 -157 136 -34 28 -62 53 -62 57 -1 12 -51 57 -80 72 -15 8 -63 47 -107 87
   -76 69 -139 123 -235 199 -24 19 -61 52 -82 72 -21 21 -44 38 -52 38 -8 0 -15
   5 -15 10 0 6 -8 14 -19 18 -10 4 -38 26 -62 48 -53 49 -121 123 -98 106 20
   -15 33 -4 17 15 -8 10 -8 17 0 25 8 8 27 7 72 -2 33 -7 84 -10 113 -7 72 7
   107 -1 107 -24 0 -18 11 -19 200 -19 127 0 200 -4 200 -10 0 -5 -9 -10 -19
   -10 -20 0 -35 -25 -25 -41 3 -5 15 -9 27 -8 20 1 20 2 -3 9 -21 7 -17 8 21 9
   26 1 53 -5 65 -14 10 -8 38 -15 61 -15 37 0 44 4 58 30 9 17 13 36 9 42 -4 6
   -3 8 3 5 6 -4 22 24 37 63 15 39 32 70 36 70 5 0 26 -46 49 -102z m-836 35
   c-7 -2 -21 -2 -30 0 -10 3 -4 5 12 5 17 0 24 -2 18 -5z m-3398 -267 l80 2 -58
   -53 -58 -53 16 -62 c9 -34 15 -66 13 -71 -2 -5 -29 12 -61 37 l-58 46 -22 -19
   c-35 -31 -88 -66 -93 -61 -5 5 20 81 38 117 11 21 10 25 -12 40 -14 9 -41 31
   -60 49 l-35 33 70 -3 70 -3 24 74 25 74 21 -74 21 -74 79 1z m728 8 c8 -8 34
   -9 77 -4 36 4 67 5 69 4 7 -6 -32 -45 -75 -75 l-42 -28 19 -57 c25 -76 25 -88
   -2 -74 -11 7 -38 27 -60 47 l-38 35 -50 -42 c-27 -23 -54 -40 -59 -39 -6 2 -1
   32 10 69 l20 64 -25 21 c-13 11 -40 33 -58 48 l-34 28 72 -4 73 -4 20 54 c11
   29 20 60 20 67 0 38 17 20 33 -36 10 -35 24 -68 30 -74z m794 5 c7 -7 30 -5
   67 4 73 20 74 5 5 -57 l-52 -47 12 -37 c7 -20 15 -43 17 -49 10 -24 -16 -13
   -56 23 -22 20 -44 34 -49 32 -5 -1 -33 -25 -62 -53 -29 -27 -50 -43 -47 -35 3
   8 13 40 23 70 l18 54 -54 49 -54 48 65 -6 c73 -8 83 -2 93 50 3 17 11 44 17
   60 l12 30 18 -63 c10 -35 22 -68 27 -73z m-423 -273 l18 -59 64 6 c35 4 64 2
   64 -2 0 -5 -24 -30 -52 -54 l-53 -46 17 -45 c9 -25 15 -46 12 -46 -13 0 -61
   30 -78 49 l-20 22 -59 -58 c-64 -63 -64 -63 -33 39 16 52 13 58 -62 105 l-37
   23 70 -2 70 -3 25 72 c13 40 27 69 30 65 4 -4 14 -33 24 -66z m-1581 -74 c7
   -10 30 -13 73 -10 34 1 65 0 69 -4 6 -6 -75 -73 -98 -81 -8 -2 -5 -25 11 -77
   12 -40 21 -75 19 -76 -1 -1 -29 20 -62 47 -33 27 -65 49 -71 49 -6 0 -24 -12
   -39 -26 -21 -19 -26 -21 -20 -7 18 45 23 76 23 140 0 59 10 124 29 173 3 9 15
   -11 30 -50 13 -36 30 -71 36 -78z m877 -16 c39 4 70 3 70 -2 -1 -9 -59 -57
   -90 -74 -12 -8 -12 -16 3 -63 9 -29 17 -63 17 -75 0 -20 -6 -18 -60 23 l-61
   44 -52 -39 c-54 -41 -73 -49 -64 -27 2 6 12 38 21 70 l17 58 -31 25 c-17 15
   -41 35 -53 45 -22 18 -22 18 49 19 l71 0 23 73 23 72 24 -78 24 -78 69 7z
   m-973 102 c-3 -8 -6 -5 -6 6 -1 11 2 17 5 13 3 -3 4 -12 1 -19z m3236 -59 c3
   -22 8 -43 11 -46 3 -3 19 9 36 27 39 41 56 35 52 -20 l-3 -42 27 21 c15 12 37
   21 49 21 27 0 59 -34 52 -55 -5 -11 0 -15 16 -15 50 0 59 -38 27 -109 -21 -45
   -19 -63 4 -46 78 58 88 57 57 -4 -12 -22 -21 -54 -21 -71 0 -17 -7 -44 -15
   -60 -15 -29 -15 -30 8 -30 32 0 58 20 172 130 55 53 120 110 145 127 25 17 56
   43 69 57 14 14 28 26 33 26 24 0 -15 -144 -49 -184 -12 -13 -30 -44 -41 -69
   -50 -113 -193 -248 -344 -324 -56 -29 -128 -60 -158 -69 -121 -37 -284 -9
   -465 80 -131 65 -220 137 -279 226 l-43 65 37 28 c21 15 41 34 44 43 5 13 19
   5 71 -40 51 -45 173 -116 200 -116 18 0 -9 108 -38 152 -19 27 -15 53 7 45 6
   -2 21 -8 34 -12 l23 -7 -21 42 c-12 23 -19 45 -15 48 3 4 23 5 43 3 l37 -3
   -27 22 c-31 24 -35 47 -14 75 13 18 14 18 45 -5 l33 -23 -7 46 c-9 57 7 68 41
   28 36 -43 54 -40 54 9 0 40 13 53 24 25 10 -26 36 -16 53 20 20 42 29 38 36
   -16z m-2759 -321 l21 -63 73 -3 73 -3 -56 -46 c-37 -31 -55 -52 -51 -62 2 -9
   11 -37 20 -63 8 -27 12 -48 8 -48 -4 0 -29 18 -55 40 l-49 39 -61 -39 c-34
   -21 -63 -37 -64 -36 -2 2 7 31 19 65 l23 63 -25 21 c-14 12 -41 35 -60 50
   l-35 29 72 -7 c82 -7 81 -8 104 82 7 29 15 51 17 48 3 -3 14 -33 26 -67z
   m-496 -893 c7 -15 12 -81 13 -158 0 -73 3 -140 7 -149 14 -35 135 -102 247
   -138 88 -28 294 -38 417 -20 150 21 434 129 553 209 34 23 207 111 218 111 2
   0 3 -59 3 -132 l0 -131 -78 -58 c-87 -64 -280 -169 -409 -223 -133 -54 -222
   -76 -373 -87 -184 -15 -284 -3 -383 46 -84 41 -189 121 -199 150 -6 18 -8 18
   -13 2 -4 -9 -6 33 -5 95 1 80 0 96 -5 55 -3 -31 -8 -57 -11 -56 -10 4 -54 -14
   -66 -26 -9 -8 -11 -30 -7 -69 5 -52 4 -56 -16 -56 -21 0 -21 2 -21 220 0 213
   -1 220 -20 220 -17 0 -20 -7 -20 -40 0 -33 -3 -40 -20 -40 -18 0 -20 7 -20 80
   l0 80 30 0 c23 0 30 4 30 20 0 12 7 20 16 20 26 0 44 26 44 64 0 35 1 36 38
   36 32 0 41 -5 50 -25z m2692 -111 c0 -12 11 -41 23 -65 13 -24 32 -68 41 -96
   13 -39 23 -53 36 -53 10 0 21 4 24 9 3 5 30 23 59 39 28 17 71 49 95 72 l42
   42 0 -58 c0 -61 -14 -194 -26 -252 l-7 -34 59 7 c97 11 234 34 244 40 6 3 10
   0 10 -7 0 -19 -78 -167 -116 -219 -19 -26 -34 -51 -34 -57 0 -5 35 -22 78 -37
   42 -15 109 -41 147 -58 39 -17 83 -33 99 -36 l29 -6 -54 -37 c-30 -21 -101
   -58 -159 -84 -58 -26 -109 -50 -113 -54 -8 -7 14 -47 94 -175 35 -56 59 -106
   59 -124 0 -4 -24 -2 -52 5 -29 8 -101 24 -160 37 -124 28 -116 36 -93 -88 17
   -95 19 -179 5 -206 -10 -18 -12 -18 -38 13 -15 17 -60 53 -102 80 l-75 49 -31
   -98 c-17 -54 -34 -110 -38 -125 -4 -19 -13 -28 -25 -28 -15 0 -32 26 -69 104
   -27 57 -55 121 -62 142 -7 22 -16 43 -21 48 -9 10 -85 -51 -183 -148 l-61 -60
   -3 50 c-2 27 1 90 7 141 16 137 16 147 -11 139 -52 -14 -279 -49 -284 -43 -9
   9 72 153 122 219 24 31 44 61 44 68 0 6 -29 24 -64 40 -35 16 -90 45 -122 65
   -33 19 -76 40 -96 46 -21 5 -38 15 -38 22 0 7 54 29 119 50 141 46 201 72 201
   87 0 6 -17 37 -38 68 -105 156 -132 201 -132 219 0 20 2 20 43 8 68 -21 246
   -49 254 -41 14 13 4 184 -13 235 -8 27 -14 59 -12 72 3 21 8 18 68 -34 210
   -181 190 -173 210 -81 6 27 28 78 49 114 21 36 42 78 46 94 5 23 8 27 16 15 5
   -7 9 -23 9 -35z m-2692 -566 c8 -24 16 -104 19 -178 7 -155 16 -183 86 -247
   71 -66 156 -103 282 -124 197 -33 393 -20 564 37 79 26 400 182 459 222 19 13
   36 21 38 19 12 -11 23 -225 17 -329 l-6 -119 -41 -21 c-23 -11 -48 -26 -56
   -33 -41 -36 -278 -151 -380 -185 -156 -52 -246 -64 -448 -57 -177 6 -227 15
   -325 61 -75 36 -172 125 -188 174 -8 23 -13 103 -14 207 -1 94 -3 189 -3 213
   l-2 42 -45 0 c-38 0 -45 3 -45 20 0 13 -7 20 -20 20 -17 0 -20 7 -20 40 0 22
   5 40 10 40 6 0 10 18 10 40 0 22 -4 40 -10 40 -5 0 -10 -18 -10 -40 0 -33 -3
   -40 -20 -40 -19 0 -20 7 -20 100 0 93 1 100 20 100 13 0 20 -7 20 -20 0 -15 7
   -20 29 -20 24 0 29 5 35 33 5 22 9 28 15 19 7 -11 9 -11 14 2 3 8 1 17 -6 20
   -7 2 -3 5 8 5 15 1 23 -9 33 -41z m9 10 c-3 -7 -5 -2 -5 12 0 14 2 19 5 13 2
   -7 2 -19 0 -25z m1700 -125 c-2 -16 -4 -3 -4 27 0 30 2 43 4 28 2 -16 2 -40 0
   -55z m-1593 -979 c9 -3 16 -14 16 -23 0 -9 5 -22 10 -27 7 -7 6 -11 -5 -11 -8
   0 -18 12 -22 26 -3 14 -11 29 -17 33 -13 9 -3 10 18 2z m226 -287 c11 -5 9 -6
   -4 -4 -11 1 -21 9 -23 17 -3 10 -2 11 4 4 4 -6 15 -14 23 -17z"
            fill="#fefefe"
          />
          <path
            d="M3296 7753 c-6 -14 -5 -15 5 -6 7 7 10 15 7 18 -3 3 -9 -2 -12 -12z"
            fill="#eeedf0"
          />
          <path
            d="M4171 7701 c-15 -11 -18 -18 -8 -18 8 0 19 9 26 19 14 22 12 22 -18
   -1z"
          />
          <path
            d="M4630 7675 c0 -5 5 -17 10 -25 5 -8 10 -10 10 -5 0 6 -5 17 -10 25
   -5 8 -10 11 -10 5z"
          />
          <path
            d="M4337 7643 c-4 -3 -7 -11 -7 -17 0 -6 5 -5 12 2 6 6 9 14 7 17 -3 3
   -9 2 -12 -2z"
          />
          <path
            d="M4710 7592 c0 -16 13 -20 35 -11 11 4 15 8 8 8 -6 1 -18 4 -27 7 -9
   3 -16 1 -16 -4z"
          />
          <path d="M4410 7580 c-12 -8 -10 -10 8 -10 13 0 20 4 17 10 -7 12 -6 12 -25 0z" />
          <path
            d="M4400 7556 c0 -2 8 -10 18 -17 15 -13 16 -12 3 4 -13 16 -21 21 -21
   13z"
          />
          <path d="M4113 7443 c9 -2 25 -2 35 0 9 3 1 5 -18 5 -19 0 -27 -2 -17 -5z" />
          <path d="M3690 7425 c-6 -8 -10 -19 -8 -26 2 -6 9 0 16 15 13 29 10 33 -8 11z" />
          <path
            d="M6930 6350 c0 -5 7 -10 15 -10 8 0 15 -4 15 -10 0 -5 -7 -10 -15 -10
   -8 0 -15 -4 -15 -10 0 -5 7 -10 15 -10 8 0 15 -4 15 -10 0 -5 9 -10 20 -10 14
   0 20 -7 20 -24 0 -13 3 -31 6 -40 7 -19 45 -22 40 -3 -1 6 -1 9 1 5 3 -4 4
   -10 3 -14 -3 -13 52 -42 71 -37 15 4 19 0 19 -18 0 -18 3 -20 9 -10 7 10 -16
   39 -85 108 -52 52 -92 98 -89 104 4 5 -5 9 -19 9 -14 0 -26 -4 -26 -10z"
          />
          <path
            d="M7511 6206 c-15 -16 -19 -26 -11 -31 6 -4 14 -4 17 -1 4 3 1 6 -6 6
   -9 0 -9 4 1 14 7 8 16 12 21 9 4 -2 7 3 7 11 0 21 -3 20 -29 -8z"
          />
          <path d="M7501 6102 c-5 -10 -6 -24 -2 -31 6 -9 10 -3 13 18 5 36 3 38 -11 13z" />
          <path d="M7121 6064 c0 -11 3 -14 6 -6 3 7 2 16 -1 19 -3 4 -6 -2 -5 -13z" />
          <path
            d="M7288 6051 c-2 -4 -27 -25 -55 -45 -29 -21 -53 -40 -53 -42 0 -2 13
   -2 30 -1 16 1 30 7 30 13 0 14 23 24 56 24 13 0 24 4 24 10 0 5 7 7 15 4 8 -4
   15 -2 15 2 0 12 -58 44 -62 35z"
          />
          <path
            d="M7539 5968 c-2 -23 3 -53 9 -60 4 -4 7 11 7 33 0 21 -3 39 -7 39 -5
   0 -9 -6 -9 -12z"
          />
          <path
            d="M7470 5935 c7 -8 16 -15 21 -15 5 0 18 -9 29 -20 11 -11 25 -20 30
   -20 14 0 -50 55 -74 64 -16 5 -17 4 -6 -9z"
          />
          <path d="M7325 4679 c-4 -6 -5 -12 -2 -15 2 -3 7 2 10 11 7 17 1 20 -8 4z" />
          <path
            d="M7406 4655 c4 -11 17 -54 29 -95 21 -67 45 -104 45 -67 0 9 3 22 6
   31 3 9 -4 25 -19 38 -13 13 -27 34 -30 48 -3 14 -13 34 -22 45 l-17 20 8 -20z"
          />
          <path d="M7257 4511 c-4 -17 -3 -21 5 -13 5 5 8 16 6 23 -3 8 -7 3 -11 -10z" />
          <path d="M7633 4483 c15 -2 37 -2 50 0 12 2 0 4 -28 4 -27 0 -38 -2 -22 -4z" />
          <path
            d="M7010 4457 c0 -3 18 -20 40 -37 22 -17 40 -29 40 -27 0 3 -18 20 -40
   37 -22 17 -40 29 -40 27z"
          />
          <path
            d="M7678 4429 l-33 -31 40 28 c22 16 42 29 44 31 2 2 -1 3 -7 3 -7 0
   -26 -14 -44 -31z"
          />
          <path
            d="M7611 4376 c-12 -13 -38 -32 -57 -42 -18 -10 -34 -23 -34 -29 0 -20
   53 -230 60 -238 4 -5 5 10 3 33 -3 24 -1 45 3 49 12 8 54 98 54 115 0 8 6 17
   13 20 10 5 10 7 0 12 -7 3 -13 19 -13 34 0 16 -5 32 -11 36 -8 4 -7 9 2 15 7
   4 11 10 8 13 -3 3 -16 -5 -28 -18z"
          />
          <path
            d="M7140 4356 c0 -2 8 -10 18 -17 15 -13 16 -12 3 4 -13 16 -21 21 -21
   13z"
          />
          <path d="M7186 4307 c3 -10 9 -15 12 -12 3 3 0 11 -7 18 -10 9 -11 8 -5 -6z" />
          <path
            d="M7298 4161 c-49 -31 -93 -66 -63 -49 6 3 27 9 48 12 34 5 37 4 37
   -19 0 -18 5 -25 20 -25 11 0 20 5 20 10 0 6 9 10 20 10 11 0 20 5 20 10 0 6
   -4 10 -10 10 -5 0 -10 5 -10 10 0 6 7 10 15 10 20 0 19 13 -2 32 -31 26 -37
   26 -95 -11z"
          />
          <path d="M7426 4137 c3 -10 9 -15 12 -12 3 3 0 11 -7 18 -10 9 -11 8 -5 -6z" />
          <path d="M7530 4071 c24 -20 40 -26 40 -16 0 2 -15 12 -32 20 l-33 16 25 -20z" />
          <path d="M7737 2989 c-8 -28 -3 -34 11 -16 6 7 7 19 3 26 -6 9 -10 6 -14 -10z" />
          <path d="M7818 2983 c7 -3 16 -2 19 1 4 3 -2 6 -13 5 -11 0 -14 -3 -6 -6z" />
          <path
            d="M7800 2860 c0 -11 5 -20 10 -20 6 0 10 9 10 20 0 11 -4 20 -10 20 -5
   0 -10 -9 -10 -20z"
          />
          <path d="M2400 3920 c0 -13 7 -20 20 -20 24 0 25 6 6 26 -20 19 -26 18 -26 -6z" />
        </g>
      </svg>